<svg height="1614" width="720" xmlns="http://www.w3.org/2000/svg">
<rect height="1614" fill="#555" width="720"></rect>
<text fill="#7f7" font-family="Courier New" font-size="12" xml:space="preserve">
<tspan x="10" y="26">10 megabytes installed</tspan>
<tspan x="10" y="42"></tspan>
<tspan x="10" y="58">node_modules</tspan>
<tspan x="10" y="74">└─┬ asar@0.13.0 </tspan>
<tspan x="10" y="90">  ├── chromium-pickle-js@0.2.0 </tspan>
<tspan x="10" y="106">  ├─┬ commander@2.9.0 </tspan>
<tspan x="10" y="122">  │ └── graceful-readlink@1.0.1 </tspan>
<tspan x="10" y="138">  ├── cuint@0.2.2 </tspan>
<tspan x="10" y="154">  ├─┬ glob@6.0.4 </tspan>
<tspan x="10" y="170">  │ ├─┬ inflight@1.0.6 </tspan>
<tspan x="10" y="186">  │ │ └── wrappy@1.0.2 </tspan>
<tspan x="10" y="202">  │ ├── inherits@2.0.3 </tspan>
<tspan x="10" y="218">  │ ├── once@1.4.0 </tspan>
<tspan x="10" y="234">  │ └── path-is-absolute@1.0.1 </tspan>
<tspan x="10" y="250">  ├─┬ minimatch@3.0.3 </tspan>
<tspan x="10" y="266">  │ └─┬ brace-expansion@1.1.7 </tspan>
<tspan x="10" y="282">  │   ├── balanced-match@0.4.2 </tspan>
<tspan x="10" y="298">  │   └── concat-map@0.0.1 </tspan>
<tspan x="10" y="314">  ├─┬ mkdirp@0.5.1 </tspan>
<tspan x="10" y="330">  │ └── minimist@0.0.8 </tspan>
<tspan x="10" y="346">  ├─┬ mksnapshot@0.3.1 </tspan>
<tspan x="10" y="362">  │ ├─┬ decompress-zip@0.3.0 </tspan>
<tspan x="10" y="378">  │ │ ├─┬ binary@0.3.0 </tspan>
<tspan x="10" y="394">  │ │ │ ├── buffers@0.1.1 </tspan>
<tspan x="10" y="410">  │ │ │ └─┬ chainsaw@0.1.0 </tspan>
<tspan x="10" y="426">  │ │ │   └── traverse@0.3.9 </tspan>
<tspan x="10" y="442">  │ │ ├── graceful-fs@4.1.11 </tspan>
<tspan x="10" y="458">  │ │ ├── mkpath@0.1.0 </tspan>
<tspan x="10" y="474">  │ │ ├─┬ nopt@3.0.6 </tspan>
<tspan x="10" y="490">  │ │ │ └── abbrev@1.1.0 </tspan>
<tspan x="10" y="506">  │ │ ├── q@1.5.0 </tspan>
<tspan x="10" y="522">  │ │ ├─┬ readable-stream@1.1.14 </tspan>
<tspan x="10" y="538">  │ │ │ ├── core-util-is@1.0.2 </tspan>
<tspan x="10" y="554">  │ │ │ ├── isarray@0.0.1 </tspan>
<tspan x="10" y="570">  │ │ │ └── string_decoder@0.10.31 </tspan>
<tspan x="10" y="586">  │ │ └─┬ touch@0.0.3 </tspan>
<tspan x="10" y="602">  │ │   └── nopt@1.0.10 </tspan>
<tspan x="10" y="618">  │ ├─┬ fs-extra@0.26.7 </tspan>
<tspan x="10" y="634">  │ │ ├── jsonfile@2.4.0 </tspan>
<tspan x="10" y="650">  │ │ ├── klaw@1.3.1 </tspan>
<tspan x="10" y="666">  │ │ └─┬ rimraf@2.6.1 </tspan>
<tspan x="10" y="682">  │ │   └─┬ glob@7.1.1 </tspan>
<tspan x="10" y="698">  │ │     └── fs.realpath@1.0.0 </tspan>
<tspan x="10" y="714">  │ └─┬ request@2.81.0 </tspan>
<tspan x="10" y="730">  │   ├── aws-sign2@0.6.0 </tspan>
<tspan x="10" y="746">  │   ├── aws4@1.6.0 </tspan>
<tspan x="10" y="762">  │   ├── caseless@0.12.0 </tspan>
<tspan x="10" y="778">  │   ├─┬ combined-stream@1.0.5 </tspan>
<tspan x="10" y="794">  │   │ └── delayed-stream@1.0.0 </tspan>
<tspan x="10" y="810">  │   ├── extend@3.0.0 </tspan>
<tspan x="10" y="826">  │   ├── forever-agent@0.6.1 </tspan>
<tspan x="10" y="842">  │   ├─┬ form-data@2.1.4 </tspan>
<tspan x="10" y="858">  │   │ └── asynckit@0.4.0 </tspan>
<tspan x="10" y="874">  │   ├─┬ har-validator@4.2.1 </tspan>
<tspan x="10" y="890">  │   │ ├─┬ ajv@4.11.7 </tspan>
<tspan x="10" y="906">  │   │ │ ├── co@4.6.0 </tspan>
<tspan x="10" y="922">  │   │ │ └─┬ json-stable-stringify@1.0.1 </tspan>
<tspan x="10" y="938">  │   │ │   └── jsonify@0.0.0 </tspan>
<tspan x="10" y="954">  │   │ └── har-schema@1.0.5 </tspan>
<tspan x="10" y="970">  │   ├─┬ hawk@3.1.3 </tspan>
<tspan x="10" y="986">  │   │ ├── boom@2.10.1 </tspan>
<tspan x="10" y="1002">  │   │ ├── cryptiles@2.0.5 </tspan>
<tspan x="10" y="1018">  │   │ ├── hoek@2.16.3 </tspan>
<tspan x="10" y="1034">  │   │ └── sntp@1.0.9 </tspan>
<tspan x="10" y="1050">  │   ├─┬ http-signature@1.1.1 </tspan>
<tspan x="10" y="1066">  │   │ ├── assert-plus@0.2.0 </tspan>
<tspan x="10" y="1082">  │   │ ├─┬ jsprim@1.4.0 </tspan>
<tspan x="10" y="1098">  │   │ │ ├── assert-plus@1.0.0 </tspan>
<tspan x="10" y="1114">  │   │ │ ├── extsprintf@1.0.2 </tspan>
<tspan x="10" y="1130">  │   │ │ ├── json-schema@0.2.3 </tspan>
<tspan x="10" y="1146">  │   │ │ └── verror@1.3.6 </tspan>
<tspan x="10" y="1162">  │   │ └─┬ sshpk@1.13.0 </tspan>
<tspan x="10" y="1178">  │   │   ├── asn1@0.2.3 </tspan>
<tspan x="10" y="1194">  │   │   ├── assert-plus@1.0.0 </tspan>
<tspan x="10" y="1210">  │   │   ├── bcrypt-pbkdf@1.0.1 </tspan>
<tspan x="10" y="1226">  │   │   ├─┬ dashdash@1.14.1 </tspan>
<tspan x="10" y="1242">  │   │   │ └── assert-plus@1.0.0 </tspan>
<tspan x="10" y="1258">  │   │   ├── ecc-jsbn@0.1.1 </tspan>
<tspan x="10" y="1274">  │   │   ├─┬ getpass@0.1.6 </tspan>
<tspan x="10" y="1290">  │   │   │ └── assert-plus@1.0.0 </tspan>
<tspan x="10" y="1306">  │   │   ├── jodid25519@1.0.2 </tspan>
<tspan x="10" y="1322">  │   │   ├── jsbn@0.1.1 </tspan>
<tspan x="10" y="1338">  │   │   └── tweetnacl@0.14.5 </tspan>
<tspan x="10" y="1354">  │   ├── is-typedarray@1.0.0 </tspan>
<tspan x="10" y="1370">  │   ├── isstream@0.1.2 </tspan>
<tspan x="10" y="1386">  │   ├── json-stringify-safe@5.0.1 </tspan>
<tspan x="10" y="1402">  │   ├─┬ mime-types@2.1.15 </tspan>
<tspan x="10" y="1418">  │   │ └── mime-db@1.27.0 </tspan>
<tspan x="10" y="1434">  │   ├── oauth-sign@0.8.2 </tspan>
<tspan x="10" y="1450">  │   ├── performance-now@0.2.0 </tspan>
<tspan x="10" y="1466">  │   ├── qs@6.4.0 </tspan>
<tspan x="10" y="1482">  │   ├── safe-buffer@5.0.1 </tspan>
<tspan x="10" y="1498">  │   ├── stringstream@0.0.5 </tspan>
<tspan x="10" y="1514">  │   ├─┬ tough-cookie@2.3.2 </tspan>
<tspan x="10" y="1530">  │   │ └── punycode@1.4.1 </tspan>
<tspan x="10" y="1546">  │   ├── tunnel-agent@0.6.0 </tspan>
<tspan x="10" y="1562">  │   └── uuid@3.0.1 </tspan>
<tspan x="10" y="1578">  └─┬ tmp@0.0.28 </tspan>
<tspan x="10" y="1594">    └── os-tmpdir@1.0.2</tspan>
</text>
</svg>
